PathFileType	4	(X/Y/Z)	pose_F01_0-91.trc
DataRate	CameraRate	NumFrames	NumMarkers	Units	OrigDataRate	OrigDataStartFrame	OrigNumFrames
30	30	9	21	m	30	13	91
Frame#	Time	CHip			RHip			RKnee			RAnkle			RBigToe			RSmallToe			RHeel			LHip			LKnee			LAnkle			LBigToe			LSmallToe			LHeel			Neck			Nose			RShoulder			RElbow			RWrist			LShoulder			LElbow			LWrist			
		X1	Y1	Z1	X2	Y2	Z2	X3	Y3	Z3	X4	Y4	Z4	X5	Y5	Z5	X6	Y6	Z6	X7	Y7	Z7	X8	Y8	Z8	X9	Y9	Z9	X10	Y10	Z10	X11	Y11	Z11	X12	Y12	Z12	X13	Y13	Z13	X14	Y14	Z14	X15	Y15	Z15	X16	Y16	Z16	X17	Y17	Z17	X18	Y18	Z18	X19	Y19	Z19	X20	Y20	Z20	X21	Y21	Z21	
13	0.43333333333333335	-0.24944948536502637	1.8333601549035226	-0.4734330254350469	-0.2636984831199102	1.829588633333823	-0.40779788513644266																-0.23810095345952648	1.8329232004783989	-0.5341318377668136	-0.21888555593442421	1.7144913281044714	-0.5603677853113251	-0.21061751656255928	1.5898321251119234	-0.5393021445133336	-0.23013906101805004	1.5566439455020178	-0.568558741582286	-0.21929753072469577	1.5651709484737013	-0.5805147032442507	-0.19574952017379155	1.5786348579794647	-0.5536014142663019	-0.2424023271254197	1.9823111990768674	-0.48225126669274654	-0.24988822699910843	2.051419449917337	-0.521993836357848	-0.264535303631611	1.9802481129059357	-0.3867395739446609	-0.2746991024494555	1.8953254576366696	-0.3585632885317927	-0.28012336777585395	1.8268596025048123	-0.35245701200040197	-0.21836778170758836	1.9832297460806712	-0.5724242951421066	-0.21204185504782772	1.9056529798928101	-0.5909291450027995	-0.21631744792375707	1.8356133256008706	-0.6007780521097915
14	0.4666666666666667	-0.24945336176612726	1.8329665560664283	-0.47341092461989653	-0.2636890882875708	1.8292004926659862	-0.4077562801256864																-0.23810821941777868	1.8327746268926415	-0.534139074353887	-0.21888555593442421	1.7144913281044714	-0.5603677853113251	-0.21061751656255928	1.5898321251119234	-0.5393021445133336	-0.23013906101805004	1.5566439455020178	-0.568558741582286	-0.21929753072469577	1.5651709484737013	-0.5805147032442507	-0.19574952017379155	1.5786348579794647	-0.5536014142663019	-0.24153627733020624	1.9821144443582182	-0.47916972869966384	-0.24991366462312845	2.051315703640569	-0.5219380155542395	-0.26370294974009906	1.9791240359384512	-0.3835717869774826	-0.2745526136434545	1.8941414475540796	-0.3582347471719749	-0.28102292824656167	1.8248787263164272	-0.3553836930281337	-0.22025476751996295	1.9860129764800936	-0.5705558840774188	-0.21421692342540521	1.9062366775174047	-0.588851163039332	-0.21800017876588257	1.8341375944329243	-0.5951584338259608
15	0.5	-0.25271004577087525	1.8326577164482833	-0.47438756836044005	-0.2640442773365382	1.8289650288118813	-0.40767612689334076																-0.23850735363372655	1.833040878305587	-0.5340073795267223	-0.21888555593442421	1.7144913281044714	-0.5603677853113251	-0.21061751656255928	1.5898321251119234	-0.5393021445133336	-0.23013906101805004	1.5566439455020178	-0.568558741582286	-0.21929753072469577	1.5651709484737013	-0.5805147032442507	-0.19574952017379155	1.5786348579794647	-0.5536014142663019	-0.24340942965411083	1.9820779054820443	-0.4770104355868655	-0.2518338623753677	2.051158983745949	-0.5198164229297015	-0.2636840659467801	1.979052349707248	-0.3835094228527754	-0.276425962548371	1.8938140147138445	-0.35610751118899414	-0.2808712404458443	1.8241465677762314	-0.3551338916611124	-0.2202322800942723	1.9862411593616627	-0.5704928887120532	-0.2136467883729617	1.9074883715050386	-0.5860661460996103	-0.21824350441977378	1.837109974812997	-0.5953180092856224
16	0.5333333333333333	-0.2538225153848396	1.8314880900513397	-0.46877641262596403	-0.26591060578254966	1.8292046727586904	-0.40556214622450587																-0.2404636591162305	1.8333979738573791	-0.531798206404423	-0.21888555593442421	1.7144913281044714	-0.5603677853113251	-0.21061751656255928	1.5898321251119234	-0.5393021445133336	-0.23013906101805004	1.5566439455020178	-0.568558741582286	-0.21929753072469577	1.5651709484737013	-0.5805147032442507	-0.19574952017379155	1.5786348579794647	-0.5536014142663019	-0.24346155391166674	1.9819282496602928	-0.4770302692476575	-0.25184950468198913	2.051083014467296	-0.5197605519466802	-0.2636941734535381	1.9791396700619437	-0.3835432891633977	-0.27639606065399275	1.8964094726252165	-0.35640323344222424	-0.2801286775710737	1.826310330192054	-0.3524011953219563	-0.22026047085405293	1.9847046031911784	-0.5701073081740032	-0.21532381005389978	1.9052364868923377	-0.591962989239138	-0.2180057960883669	1.8341848402262135	-0.5952157459177131
17	0.5666666666666667	-0.2535759518754667	1.8316641690785214	-0.4687098472709836	-0.2647730778674469	1.8277391825384872	-0.4021680776641491																-0.2402054328461647	1.8331290595161902	-0.5318173585133702	-0.21888555593442421	1.7144913281044714	-0.5603677853113251	-0.21061751656255928	1.5898321251119234	-0.5393021445133336	-0.23013906101805004	1.5566439455020178	-0.568558741582286	-0.21929753072469577	1.5651709484737013	-0.5805147032442507	-0.19574952017379155	1.5786348579794647	-0.5536014142663019	-0.24346775315263958	1.9820497688904986	-0.4768360770044745	-0.2509820674772097	2.050875536747309	-0.5167773945522691	-0.26368837984454246	1.9790666639012828	-0.38340875844756145	-0.27809913927949037	1.8950288532806434	-0.3539663975595277	-0.28287512016305677	1.825131512999231	-0.35319286842948133	-0.21939599106228336	1.9864072225031097	-0.5672644654199931	-0.2156721008174186	1.9103977363285018	-0.5841677758510401	-0.22027006063611712	1.836960528316262	-0.5931318841634908
18	0.6	-0.2523883323428976	1.8327736609999667	-0.46563917562263724	-0.2646091449556318	1.8285101102338326	-0.4023380675955247																-0.23908788607898918	1.8346643001642322	-0.5289356787209161	-0.21888555593442421	1.7144913281044714	-0.5603677853113251	-0.21061751656255928	1.5898321251119234	-0.5393021445133336	-0.23013906101805004	1.5566439455020178	-0.568558741582286	-0.21929753072469577	1.5651709484737013	-0.5805147032442507	-0.19574952017379155	1.5786348579794647	-0.5536014142663019	-0.24539559198925148	1.9818660206812615	-0.4746987303389797	-0.25293371384109453	2.050732593985377	-0.5146513624060115	-0.2654710065692737	1.9790894097724556	-0.38127175396148927	-0.27601049442117737	1.8955773103107714	-0.34738030612282067	-0.2842700050015893	1.8270524149206178	-0.3569088931378257	-0.2203018125177346	1.984792604240239	-0.5699288615989717	-0.21635465005401913	1.9066577994547984	-0.5865987093703817	-0.21788808108950034	1.8362146391374707	-0.5952638497027299
19	0.6333333333333333	-0.2504507564703112	1.830239708559744	-0.4674415576026038	-0.26258368310947416	1.8282793108725997	-0.40422305359651367																-0.2400288985075909	1.8316711429729247	-0.5316902626265643	-0.21888555593442421	1.7144913281044714	-0.5603677853113251	-0.21061751656255928	1.5898321251119234	-0.5393021445133336	-0.23013906101805004	1.5566439455020178	-0.568558741582286	-0.21929753072469577	1.5651709484737013	-0.5805147032442507	-0.19574952017379155	1.5786348579794647	-0.5536014142663019	-0.24542236687659377	1.9819902438192105	-0.4746009364756031	-0.2529486359547511	2.0507564497334503	-0.5146227216584034	-0.265516021803519	1.9791650194770243	-0.38118929156033315	-0.2750859384313781	1.8993945425305745	-0.3302838256190824	-0.28209360303238445	1.8368894927734642	-0.37450243438483954	-0.22139000933150807	1.9861111783615573	-0.5651009935340856	-0.20910316550458208	1.907441036270594	-0.5901783218820386	-0.2217885505766635	1.8358561676192915	-0.5993866151982384
20	0.6666666666666666	-0.25208020412918175	1.8328629169691002	-0.4613492270398407	-0.2627797938675102	1.8313496291958709	-0.40278262668720677																-0.23982860323064967	1.8349304032621714	-0.52784099196823	-0.21888555593442421	1.7144913281044714	-0.5603677853113251	-0.21061751656255928	1.5898321251119234	-0.5393021445133336	-0.23013906101805004	1.5566439455020178	-0.568558741582286	-0.21929753072469577	1.5651709484737013	-0.5805147032442507	-0.19574952017379155	1.5786348579794647	-0.5536014142663019	-0.2473333862675395	1.9821288421881917	-0.47248534617177745	-0.25385452203099174	2.05333616711653	-0.5179492948788289	-0.2654896831849404	1.9818361788171253	-0.3815928909628071	-0.27474091313546584	1.9056089402926464	-0.3225424185222586	-0.2818862901565792	1.8626096786927193	-0.3878471439137468	-0.22234886940362494	1.9861648786731305	-0.5680909895428952	-0.20513479190630765	1.9187706104424176	-0.5963885924849941	-0.22425636466774185	1.8596004461505877	-0.5881646090612571
21	0.7	-0.25370965178805227	1.8354861253784565	-0.45525689647707757	-0.2629759046255463	1.8344199475191423	-0.4013421997778998																-0.23962830795370843	1.838189663551418	-0.5239917213098957	-0.21888555593442421	1.7144913281044714	-0.5603677853113251	-0.21061751656255928	1.5898321251119234	-0.5393021445133336	-0.23013906101805004	1.5566439455020178	-0.568558741582286	-0.21929753072469577	1.5651709484737013	-0.5805147032442507	-0.19574952017379155	1.5786348579794647	-0.5536014142663019	-0.24827503872760787	1.9861920924625203	-0.46801920470002184	-0.25384977259088753	2.0522701136664763	-0.5175288057495853	-0.26742849168037475	1.9868458518346892	-0.3808365806167988	-0.2832508931849658	1.906937576947907	-0.34664692349941056	-0.30229348071485757	1.9422155444182723	-0.4433990262252731	-0.22042503682014444	1.987281922846162	-0.5617817838189942	-0.20754152616658528	1.918808207988245	-0.6063409117699163	-1.4905513355076794	1.8441010642181854	0.7557685870579237
